<svg width="627" height="627" viewBox="0 0 627 627" fill="none" xmlns="http://www.w3.org/2000/svg">
<g clip-path="url(#clip0_7_60)">
<path d="M582.403 323.68H478.466V104.667C478.466 84.864 470.596 65.8747 456.596 51.8693C442.591 37.8693 423.602 30 403.799 30H180.092C178.113 30.0104 176.155 30.4063 174.327 31.1667C172.53 31.9115 170.894 33.0052 169.519 34.3907L4.35938 199.524C4.1823 199.732 4.08855 200.029 3.91146 200.243V200.238C2.77083 201.441 1.84373 202.821 1.16146 204.331C0.401045 206.159 0.0052 208.118 0 210.097V522.804C0 542.606 7.86453 561.596 21.8693 575.601C35.8693 589.601 54.864 597.47 74.6667 597.47H403.8C423.603 597.47 442.592 589.601 456.597 575.601C470.597 561.596 478.467 542.606 478.467 522.804V454.465H582.404C594.284 454.465 605.68 449.746 614.081 441.345C622.483 432.944 627.201 421.548 627.201 409.668V368.48C627.201 356.6 622.482 345.204 614.081 336.802C605.68 328.401 594.284 323.683 582.404 323.683L582.403 323.68ZM165.163 80.9867V150.367C165.163 162.247 160.444 173.643 152.043 182.044C143.642 190.445 132.246 195.164 120.361 195.164H50.9806L165.163 80.9867ZM448.59 522.8C448.59 534.68 443.871 546.076 435.47 554.477C427.069 562.878 415.673 567.597 403.793 567.597H74.6593C62.779 567.597 51.3832 562.878 42.9819 554.477C34.5756 546.076 29.8568 534.68 29.8568 522.8V225.027H120.352C140.158 225.027 159.149 217.157 173.154 203.157C187.154 189.152 195.018 170.163 195.018 150.36V59.8653H403.792C415.672 59.8653 427.068 64.5841 435.469 72.9851C443.87 81.3861 448.589 92.7824 448.589 104.662V323.676L253.855 323.681C250.626 323.681 247.48 324.728 244.897 326.665L177.788 377.139C174.027 379.962 171.814 384.383 171.814 389.087C171.814 393.784 174.027 398.212 177.788 401.034L244.897 451.446C247.48 453.389 250.626 454.436 253.855 454.436H448.589L448.59 522.8ZM597.323 409.664C597.323 413.622 595.75 417.424 592.948 420.221C590.146 423.023 586.349 424.596 582.391 424.596H258.844L211.593 389.055L258.844 353.544H582.391C586.349 353.544 590.146 355.117 592.948 357.919C595.75 360.716 597.323 364.518 597.323 368.477V409.664Z" fill="white"/>
</g>
<defs>
<clipPath id="clip0_7_60">
<rect width="627" height="627" fill="white"/>
</clipPath>
</defs>
</svg>
