<svg width="627" height="627" viewBox="0 0 627 627" fill="none" xmlns="http://www.w3.org/2000/svg">
<path d="M463.068 30H164.401C128.765 30.0417 94.604 44.2133 69.412 69.412C44.2147 94.6053 30.0427 128.767 30 164.401V463.068C30.0417 498.704 44.2133 532.865 69.412 558.057C94.6053 583.255 128.767 597.427 164.401 597.469H463.068C498.704 597.428 532.865 583.256 558.057 558.057C583.255 532.864 597.427 498.703 597.469 463.068V164.401C597.428 128.765 583.256 94.604 558.057 69.412C532.864 44.2147 498.703 30.0427 463.068 30ZM567.599 463.067C567.599 490.791 556.588 517.379 536.984 536.984C517.38 556.589 490.791 567.599 463.067 567.599H164.4C136.676 567.599 110.088 556.588 90.4827 536.984C70.8773 517.38 59.868 490.791 59.868 463.067V164.4C59.868 136.676 70.8784 110.088 90.4827 90.4827C110.087 70.8773 136.676 59.868 164.4 59.868H463.067C490.791 59.868 517.379 70.8784 536.984 90.4827C556.589 110.087 567.599 136.676 567.599 164.4V463.067ZM400.785 247.787L334.843 313.735L400.791 379.683C403.671 382.464 405.311 386.287 405.348 390.292C405.384 394.297 403.806 398.151 400.973 400.979C398.145 403.813 394.291 405.391 390.286 405.354C386.28 405.318 382.457 403.677 379.676 400.797L313.728 334.849L247.78 400.797C241.921 406.453 232.608 406.375 226.848 400.615C221.088 394.854 221.01 385.541 226.666 379.683L292.614 313.735L226.666 247.787C221.01 241.927 221.088 232.615 226.848 226.855C232.609 221.094 241.922 221.016 247.78 226.672L313.728 292.62L379.676 226.672C385.536 221.016 394.848 221.094 400.608 226.855C406.369 232.615 406.447 241.928 400.791 247.787L400.785 247.787Z" fill="white"/>
</svg>
