<svg width="627" height="627" viewBox="0 0 627 627" fill="none" xmlns="http://www.w3.org/2000/svg">
<path d="M463.068 30H164.401C128.765 30.0417 94.604 44.2133 69.412 69.412C44.2147 94.6053 30.0427 128.767 30 164.401V463.068C30.0417 498.704 44.2133 532.865 69.412 558.057C94.6053 583.255 128.767 597.427 164.401 597.469H463.068C498.704 597.428 532.865 583.256 558.057 558.057C583.255 532.864 597.427 498.703 597.469 463.068V164.401C597.428 128.765 583.256 94.604 558.057 69.412C532.864 44.2147 498.703 30.0427 463.068 30ZM567.599 463.067C567.599 490.791 556.588 517.379 536.984 536.984C517.38 556.589 490.791 567.599 463.067 567.599H164.4C136.676 567.599 110.088 556.588 90.4827 536.984C70.8773 517.38 59.868 490.791 59.868 463.067V164.4C59.868 136.676 70.8784 110.088 90.4827 90.4827C110.087 70.8773 136.676 59.868 164.4 59.868H463.067C490.791 59.868 517.379 70.8784 536.984 90.4827C556.589 110.087 567.599 136.676 567.599 164.4V463.067ZM440.068 313.733H440.073C440.042 358.379 416.453 399.692 378.021 422.411C339.584 445.129 292.016 445.875 252.891 424.374C213.765 402.869 188.891 362.317 187.464 317.692C186.037 273.072 208.267 231.009 245.937 207.052C252.885 202.822 261.943 204.932 266.307 211.802C270.666 218.671 268.728 227.766 261.947 232.26C238.275 247.291 222.322 271.88 218.234 299.624C214.145 327.364 222.333 355.51 240.655 376.734C258.983 397.952 285.634 410.155 313.677 410.155C341.713 410.155 368.365 397.952 386.693 376.734C405.015 355.51 413.203 327.364 409.114 299.624C405.025 271.879 389.073 247.291 365.406 232.26C358.619 227.765 356.682 218.672 361.041 211.802C365.406 204.932 374.463 202.822 381.411 207.052C418.031 230.14 440.192 270.448 440.072 313.734L440.068 313.733ZM298.801 267.02V202.213C298.801 193.963 305.484 187.281 313.733 187.281C321.983 187.281 328.665 193.964 328.665 202.213V267.025V267.02C328.665 275.27 321.983 281.957 313.733 281.957C305.484 281.957 298.801 275.27 298.801 267.02Z" fill="white"/>
</svg>
