<svg width="627" height="627" viewBox="0 0 627 627" fill="none" xmlns="http://www.w3.org/2000/svg">
<path d="M508.111 74.7344H401.366V59.8024C401.366 47.9169 396.647 36.5211 388.246 28.1197C379.845 19.7187 368.449 15 356.569 15H272.339C260.459 15 249.063 19.7188 240.662 28.1197C232.261 36.5208 227.542 47.9171 227.542 59.8024V74.7344H120.797C108.917 74.7344 97.5211 79.4532 89.1197 87.8541C80.7184 96.2551 76 107.651 76 119.531V146.115C76.026 154.241 78.2656 162.203 82.4792 169.151C86.6875 176.105 92.7032 181.777 99.8912 185.567V537.661C99.8912 557.463 107.756 576.458 121.761 590.458C135.766 604.463 154.755 612.327 174.558 612.327H454.171C473.974 612.327 492.963 604.463 506.969 590.458C520.969 576.458 528.838 557.463 528.838 537.661V185.567C536.02 181.776 542.041 176.104 546.25 169.151C550.458 162.204 552.698 154.239 552.729 146.115V119.531C552.729 107.683 548.036 96.3128 539.672 87.9168C531.307 79.5209 519.958 74.7813 508.109 74.7345L508.111 74.7344ZM257.405 59.8024C257.405 51.5524 264.092 44.8651 272.337 44.8651H356.566C360.524 44.8651 364.321 46.438 367.123 49.24C369.925 52.0421 371.498 55.8389 371.498 59.8025V74.7345H257.405L257.405 59.8024ZM105.858 119.532C105.858 111.287 112.545 104.6 120.79 104.6H508.097C512.055 104.6 515.857 106.173 518.654 108.975C521.456 111.777 523.029 115.574 523.029 119.532V146.116C523.029 150.074 521.456 153.876 518.654 156.673C515.857 159.475 512.055 161.048 508.097 161.048H120.79C112.545 161.048 105.858 154.366 105.858 146.116V119.532ZM454.258 582.465H174.645C162.764 582.465 151.369 577.741 142.967 569.34C134.566 560.939 129.847 549.543 129.847 537.663V190.916H499.061V537.663C499.061 549.543 494.342 560.939 485.941 569.34C477.54 577.741 466.144 582.465 454.264 582.465H454.258ZM329.383 268.865V504.252C329.383 512.502 322.701 519.184 314.451 519.184C306.201 519.184 299.519 512.501 299.519 504.252V268.865C299.519 260.62 306.201 253.933 314.451 253.933C322.701 253.933 329.383 260.621 329.383 268.865ZM436.905 268.865V504.252C436.905 512.502 430.217 519.184 421.973 519.184C413.723 519.184 407.041 512.501 407.041 504.252V268.865C407.041 260.62 413.723 253.933 421.973 253.933C430.217 253.933 436.905 260.621 436.905 268.865ZM221.865 268.865V504.252C221.865 512.502 215.182 519.184 206.933 519.184C198.688 519.184 192.001 512.501 192.001 504.252V268.865C192.001 260.62 198.688 253.933 206.933 253.933C215.183 253.933 221.865 260.621 221.865 268.865Z" fill="white"/>
</svg>
