<svg width="680" height="262" viewBox="0 0 680 262" fill="none" xmlns="http://www.w3.org/2000/svg">
<rect width="8" height="262" fill="black"/>
<path d="M8 2H40V34H8V2Z" fill="black"/>
<path d="M200 2H168V34H200V2Z" fill="white"/>
<path d="M8 66H40V98H8V66Z" fill="black"/>
<path d="M200 66H168V98H200V66Z" fill="white"/>
<path d="M40 34H72V66H40V34Z" fill="black"/>
<path d="M168 34H136V66H168V34Z" fill="white"/>
<path d="M40 98H72V130H40V98Z" fill="black"/>
<path d="M168 98H136V130H168V98Z" fill="white"/>
<path d="M72 2H104V34H72V2Z" fill="black"/>
<path d="M136 2H104V34H136V2Z" fill="white"/>
<path d="M72 66H104V98H72V66Z" fill="black"/>
<path d="M136 66H104V98H136V66Z" fill="white"/>
<path d="M104 34H136V66H104V34Z" fill="black"/>
<path d="M104 34H72V66H104V34Z" fill="white"/>
<path d="M104 98H136V130H104V98Z" fill="black"/>
<path d="M104 98H72V130H104V98Z" fill="white"/>
<path d="M136 2H168V34H136V2Z" fill="black"/>
<path d="M72 2H40V34H72V2Z" fill="white"/>
<path d="M136 66H168V98H136V66Z" fill="black"/>
<path d="M72 66H40V98H72V66Z" fill="white"/>
<path d="M168 34H200V66H168V34Z" fill="black"/>
<path d="M40 34H8V66H40V34Z" fill="white"/>
<path d="M168 98H200V130H168V98Z" fill="black"/>
<path d="M40 98H8V130H40V98Z" fill="white"/>
<path d="M8 1H7V2V34V66V98V130V131H8H40H72H104H136H168H200H201V130V98V66V34V2V1H200H168H136H104H72H40H8Z" stroke="black" stroke-width="2"/>
</svg>
