<svg width="680" height="262" viewBox="0 0 680 262" fill="none" xmlns="http://www.w3.org/2000/svg">
<path d="M477.12 92.5893L480.105 80.6415L370.345 72.4279L369.6 85.8652L477.12 92.5893ZM365.866 18.668V69.4387L343.464 67.1991V22.3964L365.866 18.668ZM483.839 56.0013V78.4027H479.36V54.5067L483.839 56.0013ZM264.319 63.4701L338.986 69.4389L368.106 71.6785L367.361 85.8665L265.069 79.8925L264.319 63.4701ZM369.6 176.215V88.8555L476.371 95.5743L456.959 176.96H369.599L369.6 176.215ZM482.346 80.6421H486.825L565.97 86.6161L483.834 53.0175L479.355 51.5227L386.022 11.9493L262.824 35.8453L261.33 62.7253V79.152L2.23631 63.4693L383.036 0L639.143 102.292L479.356 92.5838L482.346 80.6421ZM266.559 176.215L265.064 82.1368L367.356 88.1108V176.215L266.559 176.215ZM101.546 197.866H103.041V199.361V200.856H101.546C101.546 207.575 103.041 214.293 105.28 221.017H107.515C108.259 222.512 108.259 223.257 109.009 224.752L107.515 225.496C110.499 231.47 114.233 237.444 118.712 241.923L120.207 240.428C120.952 241.173 121.702 241.923 123.192 242.668L121.697 244.163C126.926 248.642 132.15 252.376 138.869 255.36L139.614 253.121C141.108 253.866 141.853 253.866 143.348 254.616L142.603 256.855C148.577 259.095 155.296 260.59 162.015 260.59V258.35H163.51H165.75V260.59C172.468 260.59 179.187 259.095 185.911 256.855L185.166 254.616C186.661 253.871 187.406 253.871 188.901 253.121L189.645 255.36C195.619 252.376 201.593 248.642 206.072 244.163L203.832 241.923C204.577 241.178 205.327 240.428 206.072 238.939L208.312 241.178C212.791 235.949 216.525 230.725 219.51 224.006L216.525 223.261C217.27 221.767 217.27 221.022 218.02 219.527L221.004 220.272C223.244 214.298 224.739 207.579 224.739 200.86H221.754V199.365V197.87H224.739C224.739 191.151 223.244 184.433 221.004 177.709L218.02 179.204C217.275 177.709 217.275 176.964 216.525 175.469L219.51 173.974C216.525 168 212.791 162.027 208.312 157.548L206.072 159.787C205.327 159.043 204.577 158.293 203.832 156.803L204.582 155.308C199.353 150.829 194.129 147.095 187.41 144.11L186.666 146.35C185.921 145.605 184.426 145.605 182.931 144.855L183.676 142.615C177.702 140.376 170.983 138.881 164.264 138.881V141.121H162.024H160.53V138.881C153.811 138.881 147.092 140.376 140.368 142.615L141.113 144.855C139.618 145.6 138.874 145.6 137.379 146.35L136.634 144.11C130.66 147.095 124.686 150.829 120.207 155.308L122.452 156.803C121.707 157.548 120.957 158.298 119.468 159.043L117.973 157.548C113.494 162.777 109.759 168.001 106.775 174.72L109.009 175.47C108.265 176.965 108.265 177.709 107.515 179.204L106.02 178.459C103.035 184.428 102.291 191.147 101.546 197.866ZM126.931 200.106C126.931 190.397 130.666 181.439 137.384 174.72C138.129 173.976 138.129 173.976 138.879 173.226L149.332 183.679C150.827 182.934 151.572 182.184 153.066 181.439L147.092 168.002C147.837 167.257 149.332 167.257 150.827 166.507L156.801 179.944C158.296 179.2 159.785 179.2 161.28 179.2V164.267H162.775H165.014V179.2C166.509 179.2 167.999 179.944 169.494 179.944L174.718 166.507C176.212 167.252 176.957 167.252 178.452 168.002L173.223 181.439C174.718 182.184 175.462 182.934 176.957 183.679L187.41 173.226C188.155 173.97 188.905 174.72 189.65 176.21L179.197 186.663C179.942 188.158 180.692 188.903 181.436 190.398L194.874 184.424C195.619 185.168 195.619 186.663 196.369 188.158L182.931 194.132C183.676 195.627 183.676 197.116 183.676 198.611H198.608V200.106V201.601H183.676C183.676 203.095 182.931 204.585 182.931 206.08L196.369 211.309C195.624 212.804 195.624 213.549 194.874 215.044L181.436 209.814C180.692 211.309 179.942 212.054 179.197 213.549L189.65 224.002L188.155 225.497C181.436 232.215 173.223 235.205 164.259 235.95H162.764H161.27C157.535 235.95 154.551 235.205 151.561 234.455C150.816 234.455 150.066 233.71 150.066 233.71H149.322C148.577 233.71 148.577 233.71 147.827 232.965C144.842 231.47 141.853 229.981 138.868 226.991C138.124 226.246 137.374 225.496 135.884 224.752C133.644 222.512 131.405 219.522 129.91 216.538C129.91 215.793 129.165 215.043 129.165 214.298V213.554V212.809C127.67 209.074 126.926 206.09 126.926 202.356C126.931 200.856 126.931 200.106 126.931 200.106ZM132.155 188.908L145.592 194.137C145.592 192.642 146.337 191.897 147.087 190.403L133.65 185.174C135.145 182.189 136.634 179.944 138.879 177.705L149.332 188.158C150.077 187.413 150.077 187.413 150.827 186.663L152.322 185.168C153.067 184.423 153.817 183.673 155.306 183.673C156.051 183.673 156.051 182.929 156.801 182.929C157.546 182.929 158.296 182.184 158.296 182.184C159.041 182.184 160.535 181.439 161.28 181.439H162.775H164.27H165.015C165.759 181.439 167.254 182.184 167.999 182.184C168.744 182.184 169.494 182.929 169.494 182.929C170.239 182.929 170.239 183.673 170.989 183.673C171.733 184.418 172.483 185.168 173.228 185.168L174.723 186.663C175.468 187.408 175.468 187.408 176.218 188.158C176.963 188.903 177.713 189.653 177.713 190.397C177.713 191.142 178.457 191.142 178.457 191.892C178.457 192.637 179.202 193.387 179.202 193.387C179.202 194.132 179.947 195.627 179.947 196.371V197.866V199.361C179.947 200.106 179.947 201.601 179.202 202.345C179.202 203.09 179.202 203.84 178.457 203.84C178.457 204.585 177.713 205.335 177.713 205.335C176.968 206.08 176.968 206.83 176.218 207.575L173.228 210.564L183.681 221.017C181.442 223.257 179.202 224.752 176.962 225.496L171.733 212.059C170.988 212.804 169.494 213.554 167.999 213.554L173.228 226.991C170.244 227.736 167.254 228.486 164.27 228.486V214.298H162.03H160.535V228.486C157.551 228.486 154.561 227.741 152.322 226.991L157.551 213.554C156.056 213.554 155.311 212.809 153.816 212.059L148.587 224.752C145.603 223.257 143.358 221.767 141.118 219.523L150.827 209.814C150.082 209.07 148.587 208.319 147.842 207.575L138.134 217.283C135.894 215.043 134.4 212.804 132.905 209.814L145.598 204.585C144.853 203.84 144.853 202.345 144.103 200.851L131.41 206.08C130.665 203.095 129.915 200.106 129.915 197.121H144.847V195.627V194.132H130.659C130.664 194.882 131.41 191.897 132.155 188.908ZM82.8791 161.283L123.947 113.496H201.598L242.666 164.267V198.616H484.586V169.496L520.424 117.231H612.268L638.404 167.257H672.754L671.259 178.455L645.123 190.403H633.175L603.311 130.668H527.15L497.286 173.231V211.31H227.739V168.747L194.14 126.935H129.922L96.3231 165.763V205.336H29.8698L24.6406 179.951H82.8806L82.8791 161.283ZM503.252 197.867H504.747V199.361V200.856H503.252C503.252 207.575 504.747 214.294 506.987 221.018L508.482 220.273C509.226 221.768 509.226 222.512 509.976 224.007L508.482 224.752C511.466 230.726 515.2 236.7 519.68 241.179L521.174 239.684C521.919 240.429 522.669 241.179 524.159 241.923L522.664 243.418C527.893 247.897 533.117 251.632 539.836 254.616L540.586 253.866C542.081 254.611 542.826 254.611 544.32 255.361L543.576 257.6C549.55 259.84 556.268 261.335 562.988 261.335V259.095H564.482H566.722V261.335C573.441 261.335 580.159 259.84 586.883 257.6L586.139 255.361C587.633 254.616 588.378 254.616 589.873 253.866L590.618 256.106C596.592 253.121 602.566 249.387 607.044 244.908L604.805 242.668C605.55 241.923 606.3 241.173 607.044 239.684L609.284 241.923C613.763 236.694 617.498 231.47 620.482 224.751L617.497 224.007C618.242 222.512 618.242 221.767 618.992 220.272L621.977 221.017C624.216 215.043 625.711 208.324 625.711 201.605L622.721 201.6V200.105V198.61H625.706C625.706 191.891 624.211 185.173 621.971 178.449L618.987 179.944C618.242 178.449 618.242 177.704 617.492 176.209L620.477 174.714C617.492 168.74 613.758 162.767 609.279 158.288L607.039 160.527C606.294 159.783 605.544 159.033 604.8 157.543L607.039 155.303C601.81 150.824 596.586 147.09 589.867 144.105L589.122 146.345C588.378 145.6 586.883 145.6 585.388 144.85L586.133 142.611C580.159 140.371 573.44 138.876 566.721 138.876V141.116H564.481H562.986V138.876C556.268 138.876 549.549 140.371 542.825 142.611L543.57 144.85C542.075 145.595 541.33 145.595 539.835 146.345L539.091 144.105C533.117 147.09 527.143 150.824 522.664 155.303L524.159 156.798C523.414 157.543 522.664 158.293 521.174 159.038L519.68 157.543C515.2 162.772 511.466 167.996 508.482 174.715L509.971 175.47C509.227 176.965 509.226 177.71 508.476 179.205L506.982 178.46C504.747 184.429 503.252 191.147 503.252 197.867ZM528.638 200.106C528.638 190.398 532.372 181.439 539.091 174.721C539.836 173.976 539.836 173.976 540.586 173.226L551.039 183.679C552.534 182.934 553.278 182.184 554.773 181.439L548.799 168.002C549.544 167.257 551.039 167.257 552.534 166.507L558.508 179.945C560.002 179.2 561.492 179.2 562.987 179.2V164.268H564.482H566.721V179.2C568.216 179.2 569.706 179.945 571.2 179.945L576.43 166.507C577.924 167.252 578.669 167.252 580.164 168.002L574.935 181.439C576.43 182.184 577.174 182.934 578.669 183.679L589.122 173.226C589.867 173.971 590.617 174.721 591.362 176.21L580.909 186.663C581.654 188.158 582.404 188.903 583.148 190.398L596.586 184.424C597.33 185.169 597.33 186.663 598.08 188.158L584.643 194.132C585.388 195.627 585.388 197.117 585.388 198.611H600.32V200.106V201.601H585.388C585.388 203.096 584.643 204.585 584.643 206.08L598.08 211.309C597.336 212.804 597.336 213.549 596.586 215.044L583.148 209.815C582.404 211.31 581.654 212.054 580.909 213.549L591.362 224.002L589.867 225.497C583.148 232.216 574.935 235.205 565.971 235.95H564.476H562.981C559.247 235.95 556.263 235.205 553.273 234.455C552.528 234.455 551.778 233.71 551.778 233.71H551.034C550.289 233.71 550.289 233.71 549.539 232.966C546.554 231.471 543.565 229.981 540.58 226.992C539.836 226.247 539.086 225.497 537.596 224.752C535.356 222.512 533.117 219.523 531.622 216.538C531.622 215.794 530.877 215.044 530.877 214.299V213.554V212.809C529.382 209.075 528.638 206.09 528.638 202.356L528.638 200.106ZM644.372 104.533C643.628 103.788 644.372 103.788 644.372 104.533L679.466 112.746L673.492 162.028H644.372L644.372 104.533ZM262.826 82.1368L265.065 179.205L367.363 179.2H459.201L479.363 95.5743L641.389 104.533V162.027L615.253 112.001H518.185L480.107 167.255V192.641H247.893V162.026L204.587 108.266H121.707L78.4 159.037V175.463H24.64L6.11306e-05 65.7033L262.826 82.1368ZM533.866 188.907L547.303 194.137C547.303 192.642 548.048 191.897 548.798 190.402L535.361 185.173C536.855 182.189 538.345 179.944 540.59 177.704L551.043 188.157C551.788 187.413 551.788 187.413 552.538 186.663L554.032 185.168C554.777 184.423 555.527 183.673 557.017 183.673C557.762 183.673 557.762 182.928 558.512 182.928C559.256 182.928 560.006 182.183 560.006 182.183C560.751 182.183 562.246 181.439 562.991 181.439H564.486H565.98H566.725C567.47 181.439 568.965 182.183 569.71 182.183C570.454 182.183 571.204 182.928 571.204 182.928C571.949 182.928 571.949 183.673 572.699 183.673C573.444 184.418 574.194 185.168 574.939 185.168L576.434 186.663C577.178 187.407 577.178 187.407 577.928 188.157C578.673 188.902 579.423 189.652 579.423 190.397C579.423 191.142 580.168 191.142 580.168 191.892C580.168 192.637 580.913 193.387 580.913 193.387C580.913 194.131 581.658 195.626 581.658 196.371V197.866V199.361C581.658 200.105 581.658 201.6 580.913 202.345C580.913 203.09 580.913 203.84 580.168 203.84C580.168 204.585 579.423 205.335 579.423 205.335C578.678 206.079 578.678 206.829 577.928 207.574L574.939 210.564L585.387 223.256C583.147 225.496 580.908 226.991 578.668 227.736L573.439 214.298C572.694 215.043 571.199 215.793 569.704 215.793L574.934 229.23C571.949 229.975 568.96 230.725 565.975 230.725V216.537H563.736H562.241V230.725C559.256 230.725 556.267 229.98 554.027 229.23L559.256 215.793C557.762 215.793 557.017 215.048 555.522 214.298L550.293 226.991C547.308 225.496 545.064 224.007 542.824 221.762L552.532 212.053C551.787 211.309 550.293 210.559 549.548 209.814L539.84 219.522C537.6 217.283 536.105 215.043 534.61 212.053L547.303 206.824C546.558 206.079 546.558 204.585 545.808 203.09L533.116 208.319C532.371 205.335 531.621 202.345 531.621 199.361H545.809V197.866V196.371H531.621C532.371 194.881 533.121 191.897 533.866 188.907Z" fill="black"/>
</svg>
