<svg viewBox="0 0 256 256" xmlns="http://www.w3.org/2000/svg"><path fill="none" d="M0 0h256v256H0z"></path><path d="M155.5 24.8a8 8 0 0 0-8.4.9L77.3 80H32a16 16 0 0 0-16 16v64a16 16 0 0 0 16 16h45.3l69.8 54.3a8.1 8.1 0 0 0 4.9 1.7 8.5 8.5 0 0 0 3.5-.8 8 8 0 0 0 4.5-7.2V32a8.1 8.1 0 0 0-4.5-7.2ZM32 96h40v64H32ZM196.3 99.7a8 8 0 0 0-11.3 0 7.9 7.9 0 0 0 0 11.3 24.1 24.1 0 0 1 0 34 7.9 7.9 0 0 0 0 11.3 7.6 7.6 0 0 0 5.6 2.3 7.8 7.8 0 0 0 5.7-2.3 40.1 40.1 0 0 0 0-56.6Z" fill="#00ff00" class="fill-000000"></path></svg>